<svg width="2254" height="778" viewBox="0 0 2254 778" fill="none" xmlns="http://www.w3.org/2000/svg">
<g style="mix-blend-mode:difference">
<path d="M2181.81 594.886C2188.5 588.974 2190.29 580.749 2200.06 581.006C2208.54 581.263 2210.34 587.432 2216 589.745C2223.2 592.573 2232.19 588.717 2239.9 595.915C2247.87 603.112 2240.93 613.908 2243.5 621.876C2246.07 629.588 2258.15 638.584 2251.21 649.894C2244.53 661.204 2235.28 653.75 2229.88 660.176C2223.2 667.63 2223.2 673.542 2214.97 679.197C2206.75 684.852 2196.46 679.454 2190.29 679.197C2181.04 678.426 2174.1 687.68 2178.21 695.391C2182.07 702.846 2188.24 703.874 2187.47 712.613C2186.7 722.895 2156.62 733.434 2153.79 708.758C2152.77 700.018 2158.42 696.677 2160.22 687.68C2162.02 678.169 2159.96 668.402 2167.93 663.775C2176.93 658.634 2182.84 670.458 2193.12 664.546C2204.69 658.12 2200.58 653.236 2209.06 649.123C2217.54 645.01 2224.22 648.352 2230.14 641.155C2236.05 633.957 2233.99 629.588 2228.85 628.302C2223.97 627.017 2218.06 626.503 2215.48 622.647C2211.12 616.221 2215.23 610.052 2210.86 603.883C2206.49 597.714 2194.41 599.256 2191.58 606.453C2188.24 614.936 2193.64 622.904 2187.98 632.158C2180.01 645.267 2163.82 639.355 2162.02 621.619C2160.73 607.996 2175.39 600.541 2181.81 594.886ZM2159.45 777.132C2169.73 779.188 2179.76 770.192 2181.55 759.91C2183.61 750.656 2177.19 742.688 2167.16 741.146C2158.16 739.346 2146.85 742.688 2145.31 753.227C2143.51 763.509 2149.68 775.59 2159.45 777.132Z" fill="white"/>
</g>
<g style="mix-blend-mode:difference">
<path d="M2101.12 440.049C2115.78 439.021 2114.75 454.444 2123.74 459.07C2132.74 463.954 2139.17 455.986 2147.91 460.099C2162.56 466.782 2158.45 487.603 2145.85 487.603C2139.68 487.603 2137.88 483.49 2133.51 482.719C2128.37 481.948 2120.4 488.117 2115.52 484.004C2110.89 480.148 2116.8 466.268 2107.81 465.24C2093.16 463.697 2097.01 490.43 2120.4 497.884C2141.48 504.311 2153.05 520.504 2153.05 536.698C2153.05 545.952 2150.99 554.692 2143.54 557.519C2137.88 559.832 2133.51 556.748 2129.14 561.375C2124.77 565.488 2119.63 581.424 2105.49 580.653C2090.07 579.882 2091.61 565.488 2083.65 561.375C2076.71 557.519 2066.94 563.174 2058.2 555.463C2045.35 543.896 2058.46 518.705 2074.39 525.645C2083.9 530.015 2079.28 543.125 2087.5 546.723C2093.93 549.551 2095.98 540.554 2103.95 540.554C2111.92 540.554 2112.43 548.008 2121.95 545.952C2130.69 544.153 2135.05 517.934 2117.83 511.508C2103.95 506.624 2071.31 504.825 2071.31 482.719C2071.31 468.838 2080.82 468.581 2085.19 460.87C2088.79 454.444 2088.02 441.077 2101.12 440.049Z" fill="white"/>
</g>
<g style="mix-blend-mode:difference">
<path d="M1857.03 610.691C1859.34 600.152 1853.17 587.814 1860.89 577.532C1868.08 568.278 1884.02 570.078 1893.53 564.423C1902.53 558.768 1902.27 549 1913.84 549C1929.77 549 1926.95 577.275 1938 580.36C1950.85 584.215 1961.39 569.05 1968.07 566.479C1974.76 563.909 1980.41 568.793 1987.61 565.194C1994.81 561.852 1998.41 551.056 2008.17 551.056C2021.54 551.056 2012.29 568.535 2020.77 572.134C2028.48 575.476 2043.39 562.623 2053.93 557.225C2060.87 553.627 2069.61 557.997 2069.61 565.194C2069.61 572.648 2066.01 574.448 2066.01 579.846C2066.01 585.243 2072.95 589.613 2072.95 597.839C2072.95 607.349 2060.1 614.547 2064.98 623.8C2069.61 632.797 2079.37 632.026 2086.06 635.625C2094.8 640.251 2094.54 657.988 2081.43 659.273C2073.98 660.044 2069.61 654.132 2062.92 654.903C2056.24 655.674 2044.93 668.012 2035.42 667.755C2025.91 667.498 2019.74 654.389 2026.94 647.963C2033.11 642.565 2041.33 645.649 2044.16 635.11C2046.73 625.6 2043.65 619.688 2043.39 612.233C2043.13 604.265 2051.36 598.61 2046.73 589.099C2042.1 579.331 2022.82 584.729 2016.14 592.698C2011.26 598.61 2009.2 605.807 2009.2 615.832C2009.2 626.371 2013.57 634.853 2011.51 643.079C2009.2 652.847 1997.89 659.016 1999.43 664.414C2001.49 671.868 2012.8 668.012 2015.88 676.238C2018.45 683.435 2013.83 690.632 2006.63 690.632C1998.66 690.632 1990.18 687.034 1982.21 688.319C1974.24 689.604 1966.27 699.629 1957.79 699.629C1950.59 699.629 1943.91 694.745 1943.91 686.52C1943.91 670.583 1969.87 673.924 1977.84 663.385C1986.58 651.818 1981.95 630.998 1982.98 621.744C1983.75 612.747 1992.24 602.98 1993.78 597.325C1995.83 589.613 1992.75 585.243 1986.58 585.501C1981.95 586.015 1976.81 593.469 1969.87 595.525C1962.93 597.325 1954.45 595.268 1942.37 603.237C1927.72 613.262 1947.51 642.822 1927.97 651.561C1915.38 656.959 1911.78 653.618 1901.5 656.702C1891.47 660.044 1890.96 667.241 1881.45 668.012C1871.68 668.783 1868.08 662.614 1861.91 656.959C1856 651.818 1849.58 647.706 1849.06 640.251C1848.29 629.455 1854.97 619.431 1857.03 610.691ZM1903.56 642.565C1913.07 635.625 1906.38 625.343 1911.78 615.061C1915.12 607.607 1919.49 606.321 1920.01 596.811C1920.52 586.015 1908.95 578.56 1900.21 579.846C1889.93 581.388 1887.1 594.497 1882.99 601.694C1879.14 608.121 1868.85 614.033 1870.14 626.628C1870.91 635.882 1878.62 635.367 1883.76 637.938C1888.39 639.994 1895.33 648.734 1903.56 642.565Z" fill="white"/>
</g>
<g style="mix-blend-mode:difference">
<path d="M1798.52 553.986C1799.55 546.531 1805.97 545.246 1811.37 540.105C1815.48 536.249 1815.48 528.281 1823.97 529.052C1832.45 529.823 1831.68 538.82 1833.99 543.704C1836.3 548.588 1841.19 551.929 1840.67 560.669C1840.16 568.637 1831.16 573.521 1823.19 572.75C1814.2 571.979 1811.88 582.261 1816.51 587.402C1819.6 591 1825.51 587.916 1828.34 593.828C1831.68 601.025 1822.17 608.479 1820.88 615.677C1819.08 624.673 1822.42 628.529 1821.91 634.698C1821.14 644.98 1807 656.033 1811.88 664.515C1816 671.456 1833.73 666.829 1833.73 678.396C1833.73 687.135 1824.48 690.477 1814.97 689.449C1806.49 688.421 1798.52 684.565 1791.58 686.107C1783.61 688.164 1782.84 694.333 1773.33 695.361C1764.84 696.132 1759.96 686.621 1765.1 680.195C1774.61 668.114 1785.92 673.255 1790.29 664.258C1795.43 653.977 1790.81 643.181 1792.61 633.927C1794.66 623.645 1802.12 620.046 1806.23 613.106C1809.57 607.451 1808.29 600.768 1803.14 601.539C1795.43 602.824 1791.58 611.05 1782.32 611.05C1772.3 611.05 1768.96 599.226 1775.38 593.314C1784.38 584.831 1801.09 587.659 1804.43 574.035C1806.74 564.782 1797.23 562.468 1798.52 553.986Z" fill="white"/>
</g>
<g style="mix-blend-mode:difference">
<path d="M1631.05 709.145C1630.28 700.92 1639.02 694.237 1646.98 694.751C1655.72 695.265 1667.03 706.061 1673.46 699.12C1680.14 691.666 1671.15 674.958 1674.23 659.278C1677.06 644.113 1684.26 642.313 1687.85 629.975C1691.2 618.665 1686.31 615.066 1688.11 604.013C1689.91 593.474 1701.22 588.077 1696.59 582.164C1692.74 577.281 1684.26 584.221 1676.54 583.193C1664.98 581.65 1665.49 567.513 1680.14 560.316C1688.63 556.203 1695.31 561.601 1704.31 559.544C1712.02 557.745 1712.79 551.833 1722.56 551.062C1731.55 550.291 1734.64 556.974 1739.52 557.231C1744.66 557.488 1757.26 546.692 1764.71 556.46C1770.88 564.428 1766.51 575.224 1755.97 578.566C1744.15 582.422 1729.24 574.453 1719.99 584.478C1708.93 596.559 1719.73 611.982 1714.84 626.119C1710.73 638.201 1699.42 643.856 1697.11 651.31C1695.05 658.507 1701.48 663.134 1701.22 672.902C1700.96 683.955 1690.43 696.036 1698.14 701.948C1706.36 708.374 1714.33 689.867 1724.87 689.353C1735.15 688.839 1736.69 697.578 1745.69 694.494C1755.71 690.895 1751.35 673.93 1756.23 663.905C1762.66 650.796 1784.25 648.996 1783.22 666.476C1782.45 678.814 1774.48 682.927 1773.19 689.867C1772.17 696.55 1778.08 715.571 1766.51 723.026C1755.2 730.223 1746.46 717.114 1731.3 715.828C1722.81 715.057 1720.24 721.997 1710.47 724.568C1699.42 727.395 1694.28 720.198 1687.34 722.255C1682.46 723.797 1680.14 730.737 1671.92 730.737C1663.69 730.737 1659.58 723.026 1654.95 721.226C1649.55 719.17 1632.33 724.568 1631.05 709.145Z" fill="white"/>
</g>
<g style="mix-blend-mode:difference">
<path d="M1525.29 553.49C1528.37 536.525 1553.05 550.149 1554.85 528.3C1556.13 514.933 1561.27 490 1585.95 490C1598.03 490 1604.97 500.025 1605.74 512.62C1608.05 545.008 1551.76 567.885 1564.1 583.822C1574.64 597.445 1592.37 564.286 1611.91 564.286C1621.16 564.286 1631.19 570.969 1631.19 582.537C1631.19 593.847 1623.99 598.473 1617.56 598.473C1609.85 598.473 1609.08 591.533 1601.88 591.79C1586.46 592.304 1585.18 617.752 1564.61 617.752C1546.36 617.752 1541.48 607.213 1541.48 596.674C1541.48 584.593 1550.22 578.938 1550.22 571.741C1550.22 564.8 1543.02 568.913 1535.82 567.628C1528.63 566.086 1523.74 561.202 1525.29 553.49ZM1583.89 511.335C1577.47 507.479 1566.93 531.898 1573.87 534.983C1581.32 538.325 1591.86 516.476 1583.89 511.335Z" fill="white"/>
</g>
<g style="mix-blend-mode:difference">
<path d="M1447.2 551.874C1452.34 548.019 1452.86 542.878 1456.97 540.05C1465.45 534.138 1477.53 541.593 1473.16 554.959C1470.08 564.47 1460.83 573.209 1461.34 580.407C1461.85 588.375 1466.22 591.717 1467.25 599.942C1468.54 609.453 1462.88 621.277 1461.08 631.559C1459.28 642.355 1470.85 643.64 1477.53 629.502C1483.96 615.879 1481.65 603.284 1486.02 594.801C1491.67 584.005 1499.13 581.692 1503.24 575.009C1507.35 568.325 1501.95 559.072 1509.41 553.417C1515.32 548.79 1522.77 550.332 1528.43 549.304C1534.08 548.276 1538.71 542.621 1545.65 541.593C1554.91 540.307 1562.62 552.132 1553.11 563.956C1544.37 575.009 1529.71 572.181 1523.29 579.893C1515.58 589.146 1519.43 595.058 1510.95 609.453C1503.75 621.791 1492.7 626.675 1489.62 633.615C1485.5 642.869 1489.62 646.724 1486.27 652.379C1482.93 658.292 1476.25 658.549 1471.88 662.918C1467.25 667.545 1465.71 675.514 1456.71 676.799C1447.46 678.084 1441.29 671.658 1440.26 663.175C1438.98 653.151 1445.15 645.439 1444.63 637.728C1444.12 628.217 1440.78 625.133 1440.01 617.164C1438.98 606.882 1447.2 599.942 1445.92 589.146C1445.4 584.519 1443.09 580.15 1438.98 580.407C1434.09 580.664 1429.47 586.319 1423.55 587.347C1417.13 588.375 1412.24 585.033 1410.45 578.864C1408.39 571.924 1413.53 565.498 1424.33 561.642C1433.07 558.558 1442.32 555.473 1447.2 551.874Z" fill="white"/>
</g>
<g style="mix-blend-mode:difference">
<path d="M1351.15 494.261C1358.35 487.063 1352.69 471.898 1365.03 469.327C1374.8 467.271 1374.54 475.496 1382.51 477.553C1389.19 479.352 1395.62 470.87 1404.61 474.725C1411.04 477.553 1411.81 486.292 1408.98 491.176C1405.64 496.831 1399.73 502.486 1398.96 510.198C1398.19 517.395 1402.56 521.765 1400.25 529.219C1396.9 539.758 1381.99 543.871 1380.45 552.867C1378.65 563.149 1385.85 573.688 1394.85 574.459C1405.13 575.23 1408.47 565.977 1417.47 560.836C1425.18 556.466 1435.46 563.149 1430.83 574.202C1426.21 585.512 1415.92 584.998 1408.47 593.223C1400.25 602.22 1395.62 620.47 1381.22 617.643C1370.43 615.586 1369.66 600.164 1374.28 587.568C1378.65 575.744 1362.97 572.146 1357.83 583.199C1353.21 593.223 1351.15 608.903 1338.55 609.674C1329.3 610.188 1324.67 600.678 1319.28 599.393C1314.13 598.107 1302.31 600.164 1296.4 597.85C1277.63 590.396 1284.32 560.836 1300 558.008C1308.22 556.466 1312.34 560.579 1319.02 556.98C1325.19 553.638 1322.87 540.786 1332.9 538.216C1342.67 535.645 1348.32 541.3 1358.6 540.786C1382.77 539.501 1388.94 491.69 1380.2 489.12C1371.71 486.549 1361.17 522.536 1341.64 525.877C1323.65 528.962 1313.36 512.254 1327.24 503C1333.93 498.888 1344.72 500.687 1351.15 494.261ZM1308.74 577.544C1308.48 580.114 1310.02 583.199 1316.96 583.97C1332.38 585.769 1345.75 577.801 1347.81 570.089C1349.61 563.149 1346.78 559.807 1342.15 559.293C1336.5 558.779 1333.67 568.29 1323.9 571.889C1316.96 574.459 1309.25 572.403 1308.74 577.544Z" fill="white"/>
</g>
<g style="mix-blend-mode:difference">
<path d="M1203.06 549.338C1207.17 550.366 1211.8 547.539 1215.4 548.31C1220.03 549.338 1222.08 555.507 1228 555.507C1233.91 555.507 1238.28 544.454 1248.56 544.454C1256.27 544.454 1260.64 550.366 1261.15 557.307C1261.41 565.532 1254.47 570.93 1248.82 571.958C1242.39 572.987 1233.91 568.36 1229.79 574.272C1225.68 580.184 1229.54 586.353 1226.71 592.265C1223.37 599.205 1212.06 600.49 1215.14 609.487C1217.97 617.97 1229.28 612.315 1237.25 614.114C1244.7 615.142 1249.59 619.769 1256.01 619.769C1267.07 619.769 1274.52 605.631 1268.87 596.121C1264.75 589.437 1254.99 590.98 1257.04 581.726C1258.84 573.501 1266.3 576.328 1272.46 573.758C1280.18 570.673 1278.12 563.476 1285.83 560.391C1290.2 558.592 1296.37 560.134 1298.17 563.476C1299.71 566.56 1299.2 571.444 1301.25 573.501C1303.57 575.814 1308.19 574.529 1310.76 577.099C1314.62 580.955 1311.79 589.18 1304.34 591.237C1298.17 592.779 1292 590.98 1289.17 596.121C1284.55 604.346 1292.26 623.625 1287.89 641.618C1284.03 657.555 1265.01 675.548 1271.44 685.573C1276.32 693.027 1286.09 685.059 1292.26 690.971C1299.97 698.168 1294.06 711.791 1285.06 713.077C1278.63 714.105 1270.67 712.048 1266.81 712.82C1262.7 713.848 1257.04 718.475 1251.39 718.218C1245.73 717.703 1243.42 712.048 1239.56 711.02C1236.48 709.992 1231.85 714.619 1226.45 712.048C1217.97 708.45 1217.71 690.457 1229.02 688.657C1236.99 687.372 1247.79 692.513 1251.13 688.143C1254.47 683.259 1250.62 677.861 1251.9 665.78C1252.67 659.354 1263.21 652.671 1265.27 647.53C1267.07 641.875 1262.95 633.135 1258.07 634.678C1251.39 636.477 1244.7 645.473 1232.88 643.931C1223.88 642.646 1219.77 629.794 1211.8 629.794C1204.86 629.794 1196.89 643.16 1195.61 650.357C1194.32 657.298 1196.64 667.065 1195.61 676.576C1194.58 687.115 1182.24 700.738 1187.38 707.936C1190.72 712.82 1196.64 707.679 1202.55 710.249C1211.54 713.591 1210.77 726.443 1201.26 729.785C1190.21 733.64 1177.1 729.528 1169.13 729.785C1161.16 730.042 1155.25 736.982 1144.71 734.925C1132.12 732.612 1131.86 714.876 1143.43 709.221C1151.4 705.365 1161.93 707.422 1166.56 701.51C1171.19 695.34 1165.02 679.404 1167.85 667.579C1170.42 655.498 1176.07 651.128 1181.73 639.818C1186.35 629.537 1185.07 615.656 1191.24 604.603C1196.64 594.835 1206.4 589.437 1205.89 579.67C1205.38 570.159 1190.47 573.501 1182.76 568.36C1174.27 562.705 1174.53 545.483 1188.15 543.169C1196.12 541.884 1198.69 548.31 1203.06 549.338Z" fill="white"/>
</g>
<g style="mix-blend-mode:difference">
<path d="M960.285 665.49C963.37 648.525 988.046 662.149 989.846 640.3C991.131 626.933 996.272 602 1020.95 602C1033.03 602 1039.97 612.025 1040.74 624.62C1043.05 657.008 986.761 679.885 999.099 695.822C1009.64 709.445 1027.37 676.286 1046.91 676.286C1056.16 676.286 1066.19 682.969 1066.19 694.537C1066.19 705.847 1058.99 710.473 1052.56 710.473C1044.85 710.473 1044.08 703.533 1036.88 703.79C1021.46 704.304 1020.18 729.752 999.613 729.752C981.363 729.752 976.479 719.213 976.479 708.674C976.479 696.593 985.219 690.938 985.219 683.741C985.219 676.8 978.021 680.913 970.824 679.628C963.627 678.086 958.743 673.202 960.285 665.49ZM1018.89 623.335C1012.47 619.479 1001.93 643.898 1008.87 646.983C1016.32 650.325 1026.86 628.476 1018.89 623.335Z" fill="white"/>
</g>
<g style="mix-blend-mode:difference">
<path d="M678 701.35C678 686.698 685.454 688.498 692.138 681.043C699.078 673.332 700.877 658.166 715.015 655.596C725.296 653.796 726.839 661.765 736.35 662.279C744.318 662.793 746.888 657.395 755.114 655.082C763.596 652.768 767.452 655.596 775.678 651.483C785.702 646.599 784.417 634.518 796.755 631.69C811.15 628.349 817.833 637.602 815.52 649.427C813.72 658.166 804.724 673.589 796.498 688.498C786.73 707.005 778.762 729.111 788.016 732.709C801.382 737.85 801.125 721.399 806.78 713.688C812.178 706.234 818.604 705.463 821.175 694.924C824.516 681.3 821.175 640.944 838.397 640.944C847.65 640.944 850.992 647.113 850.221 658.68C849.45 668.962 841.224 677.959 840.196 685.67C839.425 691.582 841.481 694.153 841.224 700.065C840.967 707.262 833.77 719.6 839.682 723.199C848.679 728.597 855.876 701.607 873.869 703.149C890.063 704.434 888.264 726.797 896.746 732.195C903.172 736.308 907.799 731.681 915.768 732.709C923.736 733.738 925.792 740.164 935.303 738.107C944.043 736.308 948.412 710.089 931.19 703.663C917.31 698.522 886.207 696.98 884.665 674.874C883.637 660.994 894.947 660.994 898.546 653.025C901.373 646.599 897.003 632.204 914.482 632.204C934.532 632.204 928.106 646.599 939.159 652.254C946.099 655.853 952.782 647.37 961.265 652.254C975.916 660.737 970.775 679.758 956.895 679.758C950.469 679.758 951.24 674.874 946.87 674.874C942.5 674.874 933.761 680.272 928.877 676.159C924.25 672.304 930.162 658.423 921.166 657.395C906.514 655.596 910.37 682.585 933.761 690.04C954.839 696.723 966.406 712.66 966.406 728.854C966.406 738.107 964.349 746.847 956.895 749.674C951.24 751.731 946.87 748.903 942.5 753.53C938.388 757.9 934.532 772.809 918.852 772.809C901.373 772.809 904.972 759.956 895.975 754.558C890.063 750.96 887.492 752.245 881.066 746.076C875.154 740.421 880.552 729.368 870.784 728.083C855.619 726.026 846.879 770.495 830.171 766.64C817.833 763.555 828.886 745.819 818.861 742.477C809.608 739.393 798.298 760.727 785.702 759.699C773.878 758.671 761.797 747.104 763.596 729.368C765.396 710.604 787.759 684.385 780.047 675.902C773.878 668.962 753.057 673.589 745.346 678.987C736.607 684.899 739.948 702.121 739.434 714.716C738.406 738.622 728.638 759.699 710.902 758.928C693.166 758.157 696.507 744.534 694.965 736.051C692.395 722.428 678 719.086 678 701.35ZM709.874 686.441C701.648 687.983 697.536 695.952 699.078 704.434C701.134 716.001 708.588 728.597 715.015 728.597C721.184 728.597 723.24 722.428 723.24 712.66C723.24 700.836 719.384 684.642 709.874 686.441Z" fill="white"/>
</g>
<g style="mix-blend-mode:difference">
<path d="M622.062 516.338C626.175 517.366 630.802 514.539 634.4 515.31C639.027 516.338 641.084 522.507 646.996 522.507C652.908 522.507 657.277 511.454 667.559 511.454C675.271 511.454 679.64 517.366 680.154 524.307C680.412 532.532 673.471 537.93 667.816 538.958C661.39 539.987 652.908 535.36 648.795 541.272C644.682 547.184 648.538 553.353 645.71 559.265C642.369 566.205 631.059 567.49 634.143 576.487C636.971 584.97 648.281 579.315 656.249 581.114C663.704 582.142 668.588 586.769 675.014 586.769C686.067 586.769 693.521 572.631 687.866 563.121C683.753 556.437 673.985 557.98 676.042 548.726C677.841 540.501 685.295 543.328 691.465 540.758C699.176 537.673 697.12 530.476 704.831 527.391C709.201 525.592 715.37 527.134 717.169 530.476C718.711 533.56 718.197 538.444 720.254 540.501C722.567 542.814 727.194 541.529 729.764 544.099C733.62 547.955 730.793 556.18 723.338 558.237C717.169 559.779 711 557.98 708.173 563.121C703.546 571.346 711.257 590.625 706.887 608.618C703.032 624.555 684.01 642.548 690.436 652.573C695.32 660.027 705.088 652.059 711.257 657.971C718.968 665.168 713.056 678.791 704.06 680.077C697.634 681.105 689.665 679.048 685.81 679.82C681.697 680.848 676.042 685.475 670.387 685.218C664.732 684.703 662.418 679.048 658.563 678.02C655.478 676.992 650.851 681.619 645.453 679.048C636.971 675.45 636.714 657.457 648.024 655.657C655.992 654.372 666.788 659.513 670.13 655.143C673.471 650.259 669.616 644.861 670.901 632.78C671.672 626.354 682.211 619.671 684.267 614.53C686.067 608.875 681.954 600.135 677.07 601.678C670.387 603.477 663.704 612.473 651.879 610.931C642.883 609.646 638.77 596.794 630.802 596.794C623.861 596.794 615.893 610.16 614.608 617.357C613.323 624.298 615.636 634.065 614.608 643.576C613.58 654.115 601.241 667.738 606.382 674.936C609.724 679.82 615.636 674.679 621.548 677.249C630.545 680.591 629.773 693.443 620.263 696.785C609.21 700.64 596.1 696.528 588.132 696.785C580.164 697.042 574.252 703.982 563.713 701.925C551.117 699.612 550.86 681.876 562.427 676.221C570.396 672.365 580.935 674.422 585.562 668.51C590.188 662.34 584.019 646.404 586.847 634.579C589.417 622.498 595.072 618.128 600.727 606.818C605.354 596.537 604.069 582.656 610.238 571.603C615.636 561.835 625.404 556.437 624.89 546.67C624.376 537.159 609.467 540.501 601.755 535.36C593.273 529.705 593.53 512.483 607.153 510.169C615.122 508.884 617.692 515.31 622.062 516.338Z" fill="white"/>
</g>
<g style="mix-blend-mode:difference">
<path d="M395.03 559.015C395.03 547.962 411.995 547.448 418.678 542.05C425.362 536.652 428.703 522 441.555 522C457.235 522 445.154 546.162 453.637 548.733C464.69 552.074 475.229 535.623 485.767 535.109C494.25 534.595 501.19 538.965 500.933 549.247C500.676 557.986 494.764 558.758 490.651 567.754C486.282 577.265 489.109 601.427 474.457 602.198C465.204 602.712 462.89 594.487 466.232 584.976C468.288 579.321 477.285 567.24 464.947 563.384C455.179 560.3 449.01 570.325 448.239 578.807C447.21 588.061 449.524 593.459 448.753 600.399C447.725 608.882 438.471 624.047 444.383 627.132C450.295 630.216 461.862 622.248 471.373 621.477C478.313 620.963 480.626 628.16 479.341 634.072C477.542 641.783 471.373 647.696 458.263 650.523C445.411 653.351 433.844 651.037 423.305 655.15C410.71 660.034 407.368 665.689 396.572 666.203C387.576 666.717 381.664 657.206 387.062 649.238C394.259 638.699 402.742 644.097 410.71 637.928C418.164 632.273 422.534 625.59 426.904 610.938C431.274 596.286 430.245 583.177 433.587 572.124C437.186 560.043 428.96 558.758 423.562 564.156C418.421 569.296 415.08 571.867 408.14 571.867C401.199 571.867 395.03 567.754 395.03 559.015Z" fill="white"/>
</g>
<g style="mix-blend-mode:difference">
<path d="M217 551.35C217 536.698 224.454 538.498 231.137 531.043C238.078 523.332 239.877 508.166 254.015 505.596C264.296 503.796 265.839 511.765 275.349 512.279C283.318 512.793 285.888 507.395 294.114 505.082C302.596 502.768 306.452 505.596 314.677 501.483C324.702 496.599 323.417 484.518 335.755 481.69C350.15 478.349 356.833 487.602 354.52 499.427C352.72 508.166 343.724 523.589 335.498 538.498C325.73 557.005 317.762 579.111 327.016 582.709C340.382 587.85 340.125 571.399 345.78 563.688C351.178 556.234 357.604 555.463 360.175 544.924C363.516 531.3 360.175 490.944 377.397 490.944C386.65 490.944 389.992 497.113 389.221 508.68C388.45 518.962 379.196 530.015 379.196 540.04C379.196 555.72 370.97 564.973 376.368 568.058C382.023 571.399 388.964 567.287 391.791 560.604C394.362 554.691 398.989 546.98 405.415 546.209C415.439 544.924 419.552 552.121 418.01 561.375C415.954 574.227 401.045 580.139 394.362 588.622C387.678 597.104 382.281 619.724 369.171 616.64C356.833 613.555 367.886 595.819 357.861 592.477C348.608 589.393 337.297 610.727 324.702 609.699C312.878 608.671 300.797 597.104 302.596 579.368C304.396 560.604 326.759 534.385 319.047 525.902C312.878 518.962 292.057 523.589 284.346 528.987C275.606 534.899 278.948 552.121 278.434 564.716C277.406 588.622 267.638 609.699 249.902 608.928C232.166 608.157 235.507 594.534 233.965 586.051C231.395 572.428 217 565.487 217 551.35ZM248.874 537.726C241.162 539.012 237.307 546.723 238.849 554.691C240.648 565.487 247.845 577.312 253.758 577.312C259.67 577.312 261.469 571.656 261.469 562.403C261.469 551.093 257.87 535.927 248.874 537.726Z" fill="white"/>
</g>
<g style="mix-blend-mode:difference">
<path d="M135.318 452.43C143.8 448.831 150.227 435.979 161.022 434.179C172.332 432.38 179.53 444.461 174.903 455.257C170.276 466.567 155.881 472.993 154.082 484.046C152.54 493.043 157.681 499.212 157.424 508.723C157.167 518.747 147.142 524.145 147.142 534.941C147.142 549.336 173.618 557.818 184.928 541.625C192.382 530.829 188.269 520.804 193.153 511.55C197.523 503.325 202.664 501.268 206.52 491.758C210.375 482.247 202.921 460.912 218.858 445.746C235.309 430.324 255.358 442.919 245.591 460.141C239.421 470.937 229.654 471.194 226.826 484.303C224.513 494.842 229.654 503.068 225.284 514.635C221.171 525.688 207.805 532.885 204.206 547.794C201.636 558.333 209.861 567.843 205.491 578.896C199.322 593.805 190.326 593.805 183.642 603.573C175.674 615.14 178.502 627.992 166.42 637.503C155.367 645.985 145.086 641.615 128.378 646.242C106.272 652.411 84.6798 640.587 83.1375 618.995C81.5952 598.689 93.1623 583.523 111.156 583.523C122.466 583.523 129.663 587.893 129.663 597.146C129.663 609.999 106.786 607.428 108.842 621.823C110.384 632.362 132.49 633.904 141.744 625.164C151.769 615.911 149.455 609.742 156.396 602.287C163.079 595.347 172.59 593.291 178.759 585.836C184.928 578.125 183.385 567.586 173.104 568.357C166.42 568.871 162.822 576.326 153.311 576.326C141.744 576.326 140.202 565.016 135.575 560.389C130.948 555.762 122.723 553.963 121.437 543.681C119.895 531.343 129.663 529.029 130.691 518.747C131.719 507.952 127.092 505.638 128.121 497.927C128.892 491.501 135.832 487.131 138.916 480.705C142.515 473.507 136.089 469.395 129.663 472.993C120.152 478.134 115.011 488.416 106.272 488.93C92.6482 489.701 91.1059 468.366 106.529 460.912C116.296 456.285 125.55 456.542 135.318 452.43Z" fill="white"/>
</g>
<g style="mix-blend-mode:difference">
<path d="M217.285 329.631C220.37 312.666 245.046 326.29 246.845 304.441C248.131 291.074 253.272 266.141 277.948 266.141C290.029 266.141 296.969 276.166 297.741 288.761C300.054 321.149 243.761 344.026 256.099 359.963C266.638 373.586 282.575 338.885 302.11 338.885C311.107 338.885 312.392 347.11 321.132 348.653C328.843 349.938 334.755 344.026 342.724 347.11C352.491 350.966 348.379 362.019 356.604 365.618C363.03 368.445 365.087 361.505 373.055 361.505C381.023 361.505 381.538 368.959 391.048 366.903C399.788 365.104 404.158 338.885 386.936 332.459C373.055 327.318 341.952 325.776 340.41 303.67C339.382 289.789 350.692 289.789 354.291 281.821C357.118 275.395 352.748 261 370.228 261C390.277 261 383.851 275.395 394.904 281.05C401.844 284.648 408.527 276.166 417.01 281.05C431.662 289.532 426.521 308.554 412.64 308.554C406.214 308.554 406.985 303.67 402.615 303.67C398.246 303.67 389.506 309.068 384.622 304.955C379.995 301.099 385.907 287.219 376.911 286.191C362.259 284.391 366.115 311.381 389.506 318.835C410.584 325.519 422.151 341.455 422.151 357.649C422.151 366.903 420.094 375.643 412.64 378.47C406.985 380.526 402.615 377.699 398.246 382.326C394.133 386.696 390.277 401.604 374.597 401.604C357.118 401.604 360.717 382.069 352.748 377.956C345.808 374.357 335.012 378.47 325.759 375.385C317.019 372.558 313.42 362.533 299.797 362.533C280.261 362.533 277.177 393.893 256.613 393.893C238.363 393.893 233.479 383.354 233.479 372.815C233.479 360.734 242.219 355.079 242.219 347.882C242.219 340.941 235.021 345.054 227.824 343.769C220.627 342.227 215.743 337.343 217.285 329.631ZM275.892 287.476C269.466 283.62 258.927 308.039 265.867 311.124C273.321 314.466 283.86 292.617 275.892 287.476Z" fill="white"/>
</g>
<g style="mix-blend-mode:difference">
<path d="M208.355 144.291C227.634 141.721 221.208 156.886 229.69 161.513C237.145 165.369 249.997 158.686 257.194 165.883C263.62 172.566 261.05 180.792 263.877 185.419C267.476 191.331 269.275 198.014 267.733 207.525C265.677 218.32 258.479 225.261 249.483 229.373C238.43 234.514 239.715 241.198 233.032 248.652C225.063 256.62 210.669 262.018 201.929 260.476C191.647 258.677 193.704 249.937 186.25 245.824C179.309 241.712 172.883 244.282 169.542 237.856C165.686 230.659 167.485 224.233 167.485 217.035C167.485 209.324 164.144 195.7 167.485 188.76C171.341 180.021 179.309 177.707 186.25 170.253C192.419 163.827 190.876 146.348 208.355 144.291ZM201.929 180.278C185.478 181.049 178.281 223.975 194.475 229.373C210.412 234.514 217.095 224.49 227.634 222.176C250.254 216.264 251.539 191.331 238.944 185.419C230.718 181.306 226.606 188.246 218.894 186.19C212.211 184.647 208.355 180.278 201.929 180.278Z" fill="white"/>
</g>
<g style="mix-blend-mode:difference">
<path d="M90.9456 0.550691C101.742 4.40638 92.4879 23.9419 99.6852 30.111C106.882 36.2801 123.59 28.8258 134.643 37.3083C143.897 44.2485 142.869 53.7592 148.524 59.4142C153.922 64.8122 160.348 64.5551 164.461 73.8088C169.859 86.147 161.376 105.94 160.348 121.362C159.32 137.299 163.947 153.236 154.436 166.859C143.383 182.539 127.703 178.169 117.421 180.74C106.625 183.567 104.312 194.62 88.3752 194.62C71.9242 194.62 69.3538 181.254 54.4451 180.997C38.7653 180.74 34.6525 198.733 16.9164 201.304C0.208377 203.617 -8.01709 182.539 10.7473 174.828C20.258 170.972 25.1418 173.8 30.7969 169.687C36.7089 165.574 33.6244 157.863 36.966 151.437C40.3076 145.011 46.7337 139.613 48.276 127.274C50.0753 111.852 44.6773 106.968 45.9626 93.8584C47.2478 81.2631 63.4417 70.4672 58.3008 59.9283C52.1317 47.8472 35.6807 66.8686 24.3707 64.041C12.8036 61.2135 11.5184 46.5619 28.2264 36.7942C42.1069 28.8258 49.8183 39.6217 62.6706 33.9667C76.551 27.7976 76.294 -4.59024 90.9456 0.550691ZM96.3436 46.0478C86.0617 45.5337 78.6074 56.8438 76.8081 68.9249C75.0088 81.2631 78.6074 94.8866 75.0088 112.109C70.896 131.901 54.7021 150.151 58.5578 158.377C62.4135 166.345 70.896 161.719 78.6074 163.004C86.0617 164.032 92.4879 170.201 103.798 169.43C114.337 168.659 118.192 161.719 125.904 154.778C132.587 148.866 141.584 145.782 141.841 132.672C142.098 121.105 135.929 113.908 135.415 104.14C134.9 95.9148 141.07 79.7209 136.7 72.7806C132.33 65.8404 123.848 70.9813 116.393 64.8122C108.168 58.129 110.481 46.819 96.3436 46.0478Z" fill="white"/>
</g>
</svg>
